<svg width="1024" height="1024" viewBox="0 0 1024 1024" fill="none" xmlns="http://www.w3.org/2000/svg">
<g clip-path="url(#clip0_4_8)">
<path d="M0 0C337.92 0 675.84 0 1024 0C1024 337.92 1024 675.84 1024 1024C686.08 1024 348.16 1024 0 1024C0 686.08 0 348.16 0 0Z" fill="black"/>
<path d="M489.988 205.082C491.436 205.064 492.884 205.046 494.377 205.027C553.387 204.447 605.967 212.946 658.35 241.84C660.134 242.807 661.918 243.774 663.757 244.77C667.434 246.785 671.089 248.827 674.721 250.922C673.52 253.919 672.319 256.915 671.083 260.003C664.317 257.538 658.223 254.376 651.956 250.885C585.717 214.298 504.608 204.677 431.563 225.035C409.543 231.4 389.212 239.954 369.132 250.922C366.946 252.072 364.76 253.221 362.574 254.37C294.884 290.667 247.395 356.447 224.864 428.69C207.462 488.17 209.538 554.184 230.889 612.362C231.297 613.49 231.705 614.619 232.125 615.782C242.01 642.864 255.501 667.33 272.726 690.462C273.91 692.054 275.094 693.646 276.314 695.286C319.372 750.293 379.44 787.311 447.348 803.071C449.152 803.517 449.152 803.517 450.993 803.972C492.559 813.957 540.794 811.393 581.953 801.255C583.259 800.934 584.565 800.614 585.911 800.283C661.066 780.945 727.914 730.955 767.357 664.292C783.667 635.644 796.376 604.929 802.049 572.404C802.316 570.946 802.583 569.488 802.857 567.985C815.811 495.081 805.319 417.779 763.063 355.66C761.044 352.577 761.044 352.577 758.394 347.185C759.779 342.814 759.779 342.814 762.032 339.92C770.329 342.588 773.168 349.161 777.038 356.38C777.745 357.675 778.451 358.97 779.179 360.305C781.381 364.39 783.537 368.496 785.678 372.613C786.337 373.868 786.996 375.124 787.674 376.418C798.215 396.782 805.583 417.59 811.144 439.815C811.529 441.342 811.914 442.87 812.311 444.444C830.442 519.573 815.782 604.799 775.979 670.874C763.875 690.333 750.32 708.166 734.747 724.971C733.256 726.589 731.764 728.207 730.228 729.874C683.296 778.65 617.745 809.027 551.03 817.602C548.915 817.932 546.8 818.262 544.621 818.602C532.43 820.086 520.094 819.944 507.829 819.986C506.494 819.99 505.159 819.995 503.783 820C483.198 820.008 463.756 818.484 443.808 813.146C440.258 812.202 436.676 811.379 433.095 810.564C392.64 800.917 354.009 782.15 321.838 755.848C320.38 754.664 320.38 754.664 318.891 753.456C257.271 703.252 219.748 636.945 206.234 558.835C205.711 555.868 205.118 552.913 204.442 549.978C203.357 543.732 203.205 537.553 203.107 531.232C203.085 529.881 203.062 528.53 203.038 527.138C201.825 437.949 229.565 359.261 292.002 294.606C311.362 275.034 332.418 259.126 356.399 245.473C357.552 244.81 358.705 244.148 359.893 243.465C399.205 221.1 444.38 205.544 489.988 205.082Z" fill="#EEEEEE"/>
<path d="M738.767 258.759C749.322 264.807 756.45 273.546 760.288 284.829C762.152 297.282 760.437 307.709 754.185 318.714C748.027 326.594 739.614 331.026 730.668 335.389C717.128 336.628 704.619 336.746 693.642 328.166C682.732 316.788 677.69 305.729 678.015 290.098C679.871 278.129 686.898 268.389 696.766 261.242C709.267 254.109 725.332 252.827 738.767 258.759Z" fill="#F9FAFA"/>
</g>
<defs>
<clipPath id="clip0_4_8">
<rect width="1024" height="1024" rx="512" fill="white"/>
</clipPath>
</defs>
</svg>
