<?xml version="1.0" encoding="UTF-8"?>
<svg version="1.1" xmlns="http://www.w3.org/2000/svg" width="1024" height="1024">
<path d="M0 0 C337.92 0 675.84 0 1024 0 C1024 337.92 1024 675.84 1024 1024 C686.08 1024 348.16 1024 0 1024 C0 686.08 0 348.16 0 0 Z " fill="#FEFEFE" transform="translate(0,0)"/>
<path d="M0 0 C1.28366455 0.32943604 1.28366455 0.32943604 2.59326172 0.66552734 C19.87532545 5.21377768 35.41282018 12.37778128 51 21 C50.34 22.65 49.68 24.3 49 26 C45.86445924 24.8739427 42.99367845 23.48516981 40.09375 21.86328125 C24.21558558 13.00214543 7.88122909 7.27998877 -10 4 C-10.64130859 3.83443604 -11.28261719 3.66887207 -11.94335938 3.49829102 C-20.87560788 1.33966429 -29.99024153 1.56018177 -39.125 1.5625 C-40.01406036 1.5614325 -40.90312073 1.56036499 -41.81912231 1.55926514 C-56.3755501 1.58448695 -69.99627507 2.75687135 -84 7 C-84.77730469 7.22993652 -85.55460937 7.45987305 -86.35546875 7.69677734 C-91.34644041 9.21404132 -96.18624666 10.99319868 -101 13 C-101.69109863 13.28713867 -102.38219727 13.57427734 -103.09423828 13.87011719 C-122.74728155 22.2110509 -139.43060083 34.5096681 -155 49 C-155.67804688 49.62390625 -156.35609375 50.2478125 -157.0546875 50.890625 C-171.14159773 64.35522192 -180.82549483 81.49817483 -189 99 C-189.53625 100.134375 -190.0725 101.26875 -190.625 102.4375 C-197.43894282 118.05278563 -202.10043745 136.83259331 -202.203125 153.8984375 C-202.20882507 154.65105865 -202.21452515 155.40367981 -202.22039795 156.17910767 C-202.22981003 157.77092097 -202.23636678 159.36275342 -202.24023438 160.95458984 C-202.24983207 163.33337861 -202.28084492 165.71126124 -202.3125 168.08984375 C-202.38381174 178.43024755 -201.28908954 187.90738235 -199 198 C-198.85035797 198.67694916 -198.70071594 199.35389832 -198.54653931 200.05136108 C-191.70369957 230.9899319 -177.0288887 256.60087223 -156 280 C-155.39800781 280.67546875 -154.79601562 281.3509375 -154.17578125 282.046875 C-136.38880952 300.8643262 -109.93145909 315.60962601 -85 322 C-84.36465332 322.16838379 -83.72930664 322.33676758 -83.07470703 322.51025391 C-78.40075182 323.74895834 -73.72077113 324.95177938 -69 326 C-68.2167334 326.18095215 -67.4334668 326.3619043 -66.62646484 326.54833984 C-58.41232104 328.26429246 -50.23127947 328.39906608 -41.875 328.375 C-41.13077789 328.37412384 -40.38655579 328.37324768 -39.61978149 328.37234497 C0.99457058 328.21555375 38.23569803 314.6184236 69 288 C69.85207031 287.28199219 70.70414063 286.56398438 71.58203125 285.82421875 C77.82613146 280.42417509 82.91414923 274.48214798 88 268 C88.66773438 267.20980469 89.33546875 266.41960937 90.0234375 265.60546875 C106.41454841 246.07218836 115.71452592 222.04937212 121.3125 197.4375 C121.47202148 196.73633057 121.63154297 196.03516113 121.79589844 195.31274414 C129.99292423 157.01924342 122.15584699 113.42826175 101.32470703 80.33886719 C99.90733352 78.20760975 98.47187387 76.09388719 97 74 C97.66 72.68 98.32 71.36 99 70 C103.31637036 71.43879012 104.52754214 74.67247001 106.6875 78.4375 C107.12739258 79.19957764 107.56728516 79.96165527 108.02050781 80.74682617 C116.14621432 95.10194723 121.97962217 110.00917388 126 126 C126.31759277 127.25925293 126.31759277 127.25925293 126.64160156 128.54394531 C131.67296076 149.42687676 132.31847562 172.90933407 128 194 C127.71745361 195.38880371 127.71745361 195.38880371 127.42919922 196.80566406 C124.56630406 210.4574922 121.0707091 223.42181905 115 236 C114.63922363 236.75974121 114.27844727 237.51948242 113.90673828 238.30224609 C108.16940033 250.23134055 101.35684086 260.75235066 93 271 C92.50209961 271.61746094 92.00419922 272.23492188 91.49121094 272.87109375 C73.29894601 295.29439358 50.70074562 311.24172148 24.0234375 322.16894531 C22.57497573 322.76384925 21.13289993 323.37439617 19.6953125 323.99511719 C13.4870244 326.61055501 7.33920959 328.2660314 0.75 329.625 C-0.65185547 329.93050781 -0.65185547 329.93050781 -2.08203125 330.2421875 C-14.52432666 332.88300122 -26.64702868 334.35054228 -39.375 334.25 C-40.64939941 334.24178223 -41.92379883 334.23356445 -43.23681641 334.22509766 C-87.4154307 333.70070568 -129.29889236 314.88960882 -160.3828125 283.65234375 C-194.16179643 248.7277211 -208.76384786 203.5594292 -208.27734375 155.5546875 C-207.3663144 119.64834679 -192.68336937 82.950041 -169 56 C-168.27167969 55.16339844 -167.54335938 54.32679688 -166.79296875 53.46484375 C-164.56137848 50.94432526 -162.29080188 48.46670273 -160 46 C-159.4225 45.35675781 -158.845 44.71351563 -158.25 44.05078125 C-119.49566103 2.78779087 -54.24099435 -14.17358 0 0 Z " fill="#131313" transform="translate(551,347)"/>
<path d="M0 0 C5.70105836 3.34937178 9.55167053 8.18936684 11.625 14.4375 C12.63109963 21.33193008 11.71267295 27.1162611 8.3203125 33.203125 C4.69705758 37.9784748 -0.45596146 41.34986236 -6.375 42.4375 C-12.69456457 43.18982912 -17.31368862 42.74117999 -22.5546875 38.99609375 C-27.80354938 34.50189656 -31.66403213 29.88788543 -32.78125 22.89453125 C-33.04874163 15.34903821 -31.37310631 10.16532983 -26.375 4.4375 C-18.83820963 -2.25741485 -9.38322073 -4.10068234 0 0 Z " fill="#040404" transform="translate(637.375,372.5625)"/>
<path d="M0 0 C7.63709693 1.21103067 14.90877098 2.94924537 22.25 5.375 C23.26835938 5.71080078 24.28671875 6.04660156 25.3359375 6.39257812 C36.83708759 10.36994146 47.42012346 16.04135621 58 22 C57.34 23.65 56.68 25.3 56 27 C52.86445924 25.8739427 49.99367845 24.48516981 47.09375 22.86328125 C29.30316472 12.93487969 11.06013272 7.28854635 -9 4 C-9 3.67 -9 3.34 -9 3 C-4.545 2.505 -4.545 2.505 0 2 C0 1.34 0 0.68 0 0 Z " fill="#1A1919" transform="translate(544,346)"/>
<path d="M0 0 C-1.59846469 4.24908336 -4.8130392 6.82225739 -8.125 9.75 C-8.68832031 10.25660156 -9.25164063 10.76320313 -9.83203125 11.28515625 C-11.21651531 12.52884532 -12.60761488 13.76516305 -14 15 C-16 14 -16 14 -16.875 12.1875 C-17 10 -17 10 -15.375 7.8125 C-13 6 -13 6 -10.625 5.5625 C-7.8134169 4.96001791 -6.92923543 4.28127441 -4.8125 2.4375 C-2 0 -2 0 0 0 Z " fill="#191A1B" transform="translate(635,627)"/>
<path d="M0 0 C0.66 0.33 1.32 0.66 2 1 C-2 5 -6 9 -10 13 C-10.66 12.67 -11.32 12.34 -12 12 C-8.04 8.04 -4.08 4.08 0 0 Z " fill="#1E2020" transform="translate(399,385)"/>
<path d="M0 0 C0.33 0.99 0.66 1.98 1 3 C1.66 3.66 2.32 4.32 3 5 C1.35 5.66 -0.3 6.32 -2 7 C-3.32 5.68 -4.64 4.36 -6 3 C-4.02 2.01 -2.04 1.02 0 0 Z " fill="#1A1A1A" transform="translate(592,655)"/>
<path d="M0 0 C0.99 0.33 1.98 0.66 3 1 C0.34345343 4.73884332 -1.58110387 6.64978174 -6 8 C-4.55746343 4.63408134 -2.66735273 2.48952921 0 0 Z " fill="#090806" transform="translate(630,626)"/>
<path d="M0 0 C1.32 0.33 2.64 0.66 4 1 C2.515 3.475 2.515 3.475 1 6 C-0.32 5.67 -1.64 5.34 -3 5 C-2.01 3.35 -1.02 1.7 0 0 Z " fill="#0B0B0A" transform="translate(595,653)"/>
<path d="M0 0 C0.66 0 1.32 0 2 0 C1.34 1.65 0.68 3.3 0 5 C-0.66 5 -1.32 5 -2 5 C-2.33 6.32 -2.66 7.64 -3 9 C-3.66 8.67 -4.32 8.34 -5 8 C-3.63055898 5.05043472 -2.12169591 2.47531189 0 0 Z " fill="#222322" transform="translate(643,610)"/>
<path d="M0 0 C2.475 0.99 2.475 0.99 5 2 C3.68 3.32 2.36 4.64 1 6 C0.34 5.34 -0.32 4.68 -1 4 C-0.34 4 0.32 4 1 4 C0.67 2.68 0.34 1.36 0 0 Z " fill="#1A1B1C" transform="translate(406,639)"/>
</svg>
