<?xml version="1.0" encoding="UTF-8"?>
<svg version="1.1" xmlns="http://www.w3.org/2000/svg" width="1024" height="1024">
<path d="M0 0 C337.92 0 675.84 0 1024 0 C1024 337.92 1024 675.84 1024 1024 C686.08 1024 348.16 1024 0 1024 C0 686.08 0 348.16 0 0 Z " fill="#000000" transform="translate(0,0)"/>
<path d="M0 0 C0.79626801 -0.00988449 1.59253601 -0.01976898 2.41293335 -0.029953 C34.85429023 -0.34955966 63.76062066 4.32986031 92.55859375 20.23828125 C93.53957031 20.77066406 94.52054688 21.30304688 95.53125 21.8515625 C97.55278467 22.96075076 99.56214367 24.08477676 101.55859375 25.23828125 C100.89859375 26.88828125 100.23859375 28.53828125 99.55859375 30.23828125 C95.83890513 28.88109757 92.48870188 27.13994742 89.04370117 25.21801758 C52.62788059 5.07408165 8.0377318 -0.22307889 -32.11962891 10.98583984 C-44.22492642 14.49028798 -55.40239175 19.19989622 -66.44140625 25.23828125 C-67.64297713 25.87157218 -68.84479698 26.50439098 -70.046875 27.13671875 C-107.25992585 47.1212202 -133.36726248 83.33782792 -145.75390625 123.11328125 C-155.32088925 155.86143456 -154.17930363 192.20716771 -142.44140625 224.23828125 C-142.21727051 224.85960937 -141.99313477 225.4809375 -141.76220703 226.12109375 C-136.32780159 241.03215117 -128.9111664 254.50252064 -119.44140625 267.23828125 C-118.79042969 268.11484375 -118.13945312 268.99140625 -117.46875 269.89453125 C-93.79715635 300.17957592 -60.77426501 320.56091408 -23.44140625 329.23828125 C-22.44947266 329.48384766 -22.44947266 329.48384766 -21.4375 329.734375 C1.41385527 335.2314207 27.93149478 333.81997117 50.55859375 328.23828125 C51.2767627 328.06167969 51.99493164 327.88507813 52.73486328 327.703125 C94.05188403 317.05593282 130.80241025 289.53263236 152.48608398 252.82958984 C161.45300459 237.05712225 168.43983437 220.14574423 171.55859375 202.23828125 C171.70522461 201.43551758 171.85185547 200.63275391 172.00292969 199.80566406 C179.12413337 159.66657837 173.35602643 117.10582573 150.12573242 82.90478516 C149.015625 81.20703125 149.015625 81.20703125 147.55859375 78.23828125 C148.3203125 75.83203125 148.3203125 75.83203125 149.55859375 74.23828125 C154.12017862 75.70744034 155.6809469 79.32666607 157.80859375 83.30078125 C158.19700439 84.01395508 158.58541504 84.72712891 158.9855957 85.46191406 C160.1959707 87.7110529 161.38135424 89.97164128 162.55859375 92.23828125 C162.92065918 92.92970215 163.28272461 93.62112305 163.65576172 94.33349609 C169.4507431 105.5453504 173.50116086 117.00165322 176.55859375 129.23828125 C176.77032227 130.0792334 176.98205078 130.92018555 177.20019531 131.78662109 C187.16805239 173.15085845 179.10821629 220.0742514 157.22607422 256.45361328 C150.57193871 267.16743435 143.11988367 276.98550253 134.55859375 286.23828125 C133.73875 287.12902344 132.91890625 288.01976562 132.07421875 288.9375 C106.27320512 315.7924766 70.23578169 332.51745508 33.55859375 337.23828125 C32.39585937 337.42003906 31.233125 337.60179687 30.03515625 337.7890625 C23.33329972 338.60616278 16.55140506 338.52780231 9.80859375 338.55078125 C9.0744928 338.55339966 8.34039185 338.55601807 7.58404541 338.55871582 C-3.73267781 338.56303318 -14.42092213 337.72419189 -25.38769531 334.78515625 C-27.33930485 334.26546945 -29.3083037 333.81243091 -31.27734375 333.36328125 C-53.51761175 328.05217247 -74.7555863 317.7194499 -92.44140625 303.23828125 C-93.24336426 302.58641846 -93.24336426 302.58641846 -94.06152344 301.92138672 C-127.93773053 274.28036557 -148.566732 237.77291683 -155.99584961 194.76757812 C-156.28353632 193.1344634 -156.60950435 191.50742326 -156.98120117 189.89135742 C-157.57768289 186.45264821 -157.66142113 183.05050724 -157.71484375 179.5703125 C-157.72741714 178.82645294 -157.73999054 178.08259338 -157.75294495 177.31619263 C-158.41991683 128.21114371 -143.16937824 84.88723053 -108.84399414 49.28955078 C-98.20066858 38.51374702 -86.62498015 29.75529444 -73.44140625 22.23828125 C-72.80750977 21.87347656 -72.17361328 21.50867188 -71.52050781 21.1328125 C-49.9084171 8.81906903 -25.07313756 0.25466199 0 0 Z " fill="#EEEEEE" transform="translate(500.44140625,342.76171875)"/>
<path d="M0 0 C5.70105836 3.34937178 9.55167053 8.18936684 11.625 14.4375 C12.63137562 21.33382137 11.70536968 27.10855701 8.328125 33.203125 C5.00193446 37.56684287 0.45761851 40.02119075 -4.375 42.4375 C-11.6887577 43.12386803 -18.4456639 43.18890995 -24.375 38.4375 C-30.26809798 32.13662069 -32.99163983 26.01200761 -32.81640625 17.35546875 C-31.81374901 10.72728328 -28.01784535 5.33306495 -22.6875 1.375 C-15.93472873 -2.57473414 -7.25747767 -3.28481581 0 0 Z " fill="#F9FAFA" transform="translate(637.375,372.5625)"/>
<path d="M0 0 C0.66 0 1.32 0 2 0 C2.51046875 1.17755859 2.51046875 1.17755859 3.03125 2.37890625 C8.05320028 13.26425062 13.78827324 18.82155554 25 23 C25 23.66 25 24.32 25 25 C24.21496094 25.3403125 23.42992187 25.680625 22.62109375 26.03125 C11.73574938 31.05320028 6.17844446 36.78827324 2 48 C1.34 48 0.68 48 0 48 C-0.3403125 47.21496094 -0.680625 46.42992187 -1.03125 45.62109375 C-6.05320028 34.73574938 -11.78827324 29.17844446 -23 25 C-23 24.34 -23 23.68 -23 23 C-22.21496094 22.6596875 -21.42992187 22.319375 -20.62109375 21.96875 C-9.73574938 16.94679972 -4.17844446 11.21172676 0 0 Z " fill="#7D7D7D" transform="translate(967,944)"/>
<path d="M0 0 C1.98 0.99 3.96 1.98 6 3 C5.34 4.65 4.68 6.3 4 8 C1.525 7.01 1.525 7.01 -1 6 C-0.34 5.01 0.32 4.02 1 3 C0.67 2.01 0.34 1.02 0 0 Z " fill="#E0DCDB" transform="translate(596,365)"/>
</svg>
